<?xml version="1.0" encoding="UTF-8" standalone="no"?><!DOCTYPE svg PUBLIC "-//W3C//DTD SVG 1.1//EN" "http://www.w3.org/Graphics/SVG/1.1/DTD/svg11.dtd"><svg width="100%" height="100%" viewBox="0 0 2481 2481" version="1.1" xmlns="http://www.w3.org/2000/svg" xmlns:xlink="http://www.w3.org/1999/xlink" xml:space="preserve" xmlns:serif="http://www.serif.com/" style="fill-rule:evenodd;clip-rule:evenodd;stroke-miterlimit:10;"><g id="图层-2" serif:id="图层 2"><path d="M2074.49,2162.47l-1668.66,0c-46.283,0 -83.808,-37.525 -83.808,-83.812l-0,-1668.66c-0,-46.287 37.525,-83.808 83.808,-83.808l1668.66,-0c46.287,-0 83.812,37.521 83.812,83.808l0,1668.66c0,46.287 -37.525,83.812 -83.812,83.812Z" style="fill:none;fill-rule:nonzero;stroke:#831d20;stroke-width:191.67px;"/><path d="M639.89,617.887l0,239.675" style="fill:none;fill-rule:nonzero;stroke:#831d20;stroke-width:191.67px;stroke-linecap:round;"/><path d="M639.89,1141.15l0,239.675" style="fill:none;fill-rule:nonzero;stroke:#831d20;stroke-width:191.67px;stroke-linecap:round;"/><path d="M639.89,1653.69l0,239.675" style="fill:none;fill-rule:nonzero;stroke:#831d20;stroke-width:191.67px;stroke-linecap:round;"/><path d="M1851.25,1653.69l0,239.675" style="fill:none;fill-rule:nonzero;stroke:#831d20;stroke-width:191.67px;stroke-linecap:round;"/><path d="M953.316,1893.37l0,-1201.47c0,-40.875 33.138,-74.012 74.013,-74.012l829.379,-0" style="fill:none;fill-rule:nonzero;stroke:#831d20;stroke-width:191.67px;stroke-linecap:round;"/><path d="M1259.68,1893.37l3.846,-853.279c0,-49.996 30.8,-67.283 68.796,-67.283l520.217,-0" style="fill:none;fill-rule:nonzero;stroke:#831d20;stroke-width:189.55px;stroke-linecap:round;"/><path d="M1555.95,1893.37l-0,-525.729c-0,-31.5 25.537,-57.037 57.037,-52.871l239.555,0" style="fill:none;fill-rule:nonzero;stroke:#831d20;stroke-width:191.67px;stroke-linecap:round;"/></g></svg>